Coordinates
version=1
nRows=14
nColumns=24
inDegrees=yes

Units are S.I. units (second, meters, Newtons, ...)
Angles are in degrees.

endheader
time	pelvis_tilt	pelvis_list	pelvis_rotation	pelvis_tx	pelvis_ty	pelvis_tz	hip_flexion_r	hip_adduction_r	hip_rotation_r	knee_angle_r	ankle_angle_r	subtalar_angle_r	mtp_angle_r	hip_flexion_l	hip_adduction_l	hip_rotation_l	knee_angle_l	ankle_angle_l	subtalar_angle_l	mtp_angle_l	lumbar_extension	lumbar_bending	lumbar_rotation
      1.23216667	      0.48382787	      8.00153273	     -1.82265671	      0.17639526	      1.00868907	      0.25784081	     15.05962112	    -11.54138216	     -4.49809508	    -69.05149287	     -8.80061233	    -16.95841982	      2.02431414	      7.28851565	     12.85913930	      6.86560445	    -12.28406841	      3.40766206	    -16.05474682	     -1.02378724	    -15.42796760	     -2.25333998	     -1.41675256
      1.23633333	      0.47530219	      7.82814263	     -2.00175431	      0.18142851	      1.00955290	      0.25784620	     15.62448108	    -11.24558710	     -4.34867486	    -68.68939232	     -7.94802034	    -17.03732342	      2.01305111	      6.78462755	     12.66483788	      6.80719338	    -11.87686684	      3.44198068	    -16.08670457	     -1.04718761	    -15.40347364	     -2.01267001	     -1.48771957
      1.24050000	      0.51321014	      7.67642897	     -2.19447964	      0.18646016	      1.01045215	      0.25782735	     16.13074073	    -10.98004935	     -4.18597699	    -68.27234897	     -7.04656562	    -16.84966120	      1.97877097	      6.20207309	     12.50185144	      6.80741506	    -11.40540472	      3.45256344	    -16.14253372	     -1.09894725	    -15.44925997	     -1.76506636	     -1.62351507
      1.24466667	      0.53605740	      7.52419988	     -2.36705492	      0.19150520	      1.01131792	      0.25780558	     16.62470516	    -10.70730694	     -4.04598058	    -67.77749437	     -6.18434162	    -16.80696241	      1.77472393	      5.62294651	     12.34306630	      6.85495672	    -10.91209207	      3.38769705	    -16.33791082	     -1.32703235	    -15.45826143	     -1.52959828	     -1.77911239
      1.24883333	      0.51179052	      7.32384931	     -2.53011805	      0.19652948	      1.01211493	      0.25782588	     17.14067804	    -10.35709075	     -3.90347667	    -67.19662296	     -5.36991605	    -16.82832640	      1.76712250	      5.13501751	     12.12166027	      6.77481254	    -10.50980721	      3.43977570	    -16.30629897	     -1.35327204	    -15.42364456	     -1.25377228	     -1.81878158
      1.25300000	      0.55497982	      7.14257329	     -2.70049309	      0.20157115	      1.01297678	      0.25783812	     17.56480870	    -10.03800722	     -3.76332061	    -66.55461535	     -4.52399805	    -16.66194111	      1.73619595	      4.54467292	     11.92685386	      6.74274102	    -10.04473931	      3.48743264	    -16.28466069	     -1.41392508	    -15.46896886	     -0.99343719	     -1.93599689
      1.25716667	      0.56875826	      6.97153632	     -2.85449625	      0.20659849	      1.01374771	      0.25784929	     18.00386737	     -9.72215740	     -3.62940470	    -65.85938637	     -3.68849583	    -16.58127076	      1.67905792	      3.99528306	     11.74537507	      6.71841306	     -9.59834877	      3.49206216	    -16.31989256	     -1.51205725	    -15.48377861	     -0.75122202	     -2.05452361
      1.26133333	      0.57731393	      6.78555722	     -3.00738705	      0.21162592	      1.01450038	      0.25787879	     18.42409656	     -9.37987833	     -3.49025207	    -65.09003257	     -2.90823966	    -16.50524364	      1.62868536	      3.44990110	     11.54619569	      6.67912751	     -9.15063796	      3.50694791	    -16.33204784	     -1.60564360	    -15.49092418	     -0.48843775	     -2.15092527
      1.26550000	      0.55941924	      6.58252404	     -3.15756253	      0.21666097	      1.01519964	      0.25791808	     18.84752174	     -9.00872392	     -3.34666452	    -64.24821520	     -2.18625735	    -16.43735484	      1.59982872	      2.93694205	     11.32753975	      6.62086165	     -8.71426623	      3.53537989	    -16.32540586	     -1.67063657	    -15.46369823	     -0.20309967	     -2.22881363
      1.26966667	      0.55294570	      6.39779397	     -3.30018594	      0.22168143	      1.01585803	      0.25795518	     19.24369348	     -8.65860227	     -3.20582134	    -63.36026346	     -1.45496652	    -16.35509009	      1.56826014	      2.41383569	     11.13083540	      6.56569869	     -8.27915193	      3.55634524	    -16.31629392	     -1.74418851	    -15.45840052	      0.05768680	     -2.32663772
      1.27383333	      0.55472703	      6.21168137	     -3.43590659	      0.22670431	      1.01649578	      0.25799354	     19.60783995	     -8.30545256	     -3.06791465	    -62.41088251	     -0.76323442	    -16.27774008	      1.53700907	      1.88343415	     10.93396768	      6.50740593	     -7.84892906	      3.57711163	    -16.30319539	     -1.81915217	    -15.45979602	      0.31717773	     -2.42316550
      1.27800000	      0.51724440	      6.02081205	     -3.56326458	      0.23171965	      1.01704770	      0.25804768	     19.99262586	     -7.93441746	     -2.92161048	    -61.40229888	     -0.10975305	    -16.24573728	      1.52429888	      1.40980117	     10.73004921	      6.42800685	     -7.45024057	      3.59358447	    -16.28010845	     -1.86337127	    -15.41751711	      0.57157407	     -2.48866308
      1.28216667	      0.53170241	      5.84003782	     -3.69020346	      0.23675071	      1.01760668	      0.25808536	     20.30341550	     -7.58921807	     -2.78811558	    -60.34691326	      0.50438191	    -16.12553136	      1.49169827	      0.86216556	     10.54174758	      6.37395426	     -7.01434425	      3.63617030	    -16.24537267	     -1.94519976	    -15.43845097	      0.83660278	     -2.61069749
      1.28633333	      0.49116293	      5.65584665	     -3.80467562	      0.24176289	      1.01806535	      0.25813573	     20.65171803	     -7.22552257	     -2.64307643	    -59.23470595	      1.08057384	    -16.07258016	      1.47579681	      0.39830907	     10.34649593	      6.28874863	     -6.62858147	      3.65557652	    -16.21637080	     -1.99699120	    -15.39493887	      1.08485900	     -2.68418493
